<?xml version="1.0" encoding="UTF-8" standalone="no" ?>
<!DOCTYPE svg PUBLIC "-//W3C//DTD SVG 1.1//EN" "http://www.w3.org/Graphics/SVG/1.1/DTD/svg11.dtd">
<svg xmlns="http://www.w3.org/2000/svg" xmlns:xlink="http://www.w3.org/1999/xlink" version="1.1" width="1080" height="1080" viewBox="0 0 1080 1080" xml:space="preserve">
<desc>Created with Fabric.js 5.2.4</desc>
<defs>
</defs>
<g transform="matrix(1 0 0 1 540 540)" id="f6422215-31e0-4cf5-90e2-661420d31c70"  >
<rect style="stroke: none; stroke-width: 1; stroke-dasharray: none; stroke-linecap: butt; stroke-dashoffset: 0; stroke-linejoin: miter; stroke-miterlimit: 4; fill: rgb(255,255,255); fill-rule: nonzero; opacity: 1; visibility: hidden;" vector-effect="non-scaling-stroke"  x="-540" y="-540" rx="0" ry="0" width="1080" height="1080" />
</g>
<g transform="matrix(1 0 0 1 540 540)" id="dda8c452-ce67-4d65-afe1-68f4c7f6126b"  >
</g>
<g transform="matrix(NaN NaN NaN NaN 0 0)"  >
<g style=""   >
</g>
</g>
<g transform="matrix(1.69 0 0 1.69 540 540)"  >
<path style="stroke: none; stroke-width: 1; stroke-dasharray: none; stroke-linecap: butt; stroke-dashoffset: 0; stroke-linejoin: miter; stroke-miterlimit: 4; fill: rgb(0,0,0); fill-rule: nonzero; opacity: 0.5;"  transform=" translate(-336.01, -256)" d="M 192 96 C 218.50966799187808 96 240 74.50966799187809 240 48 C 240 21.49033200812191 218.50966799187808 0 192 0 C 165.49033200812192 0 144 21.490332008121914 144 48 C 144 74.50966799187809 165.49033200812192 96 192 96 z M 184 480 L 184 352 L 200 352 L 200 480 C 200 497.7 214.3 512 232 512 C 249.7 512 264 497.7 264 480 L 264 192 L 320 192 L 384 192 L 400 192 C 417.7 192 432 177.7 432 160 C 432 142.3 417.7 128 400 128 L 384 128 L 384 64 L 576 64 L 576 256 L 384 256 L 384 224 L 320 224 L 320 272 C 320 298.5 341.5 320 368 320 L 592 320 C 618.5 320 640 298.5 640 272 L 640 48 C 640 21.5 618.5 0 592 0 L 368 0 C 341.5 0 320 21.5 320 48 L 320 128 L 243.1 128 L 177.2 128 C 143.5 128 112.29999999999998 145.7 94.89999999999999 174.6 L 36.599999999999994 271.6 C 27.499999999999993 286.70000000000005 32.39999999999999 306.40000000000003 47.49999999999999 315.5 C 62.599999999999994 324.59999999999997 82.29999999999998 319.7 91.39999999999999 304.6 L 120 256.9 L 120 480 C 120 497.7 134.3 512 152 512 C 169.7 512 184 497.7 184 480 z" stroke-linecap="round" />
</g>
</svg>